<svg version="1.2" xmlns="http://www.w3.org/2000/svg" viewBox="0 0 332 337" width="332" height="337"><style>tspan{white-space:pre}.a{fill:none;stroke:#fff;stroke-linecap:round;stroke-miterlimit:100;stroke-width:4}.b{fill:none;stroke:#fff;stroke-linecap:round;stroke-linejoin:round;stroke-width:4}.c{fill:#fff}.d{fill:#fff;stroke:#fff;stroke-linecap:round;stroke-miterlimit:100;stroke-width:4}.e{fill:none;stroke:#fff;stroke-linecap:round;stroke-miterlimit:100;stroke-width:3.7}</style><path fill-rule="evenodd" class="a" d="m165.6 230.7c-38.4 0-69.4-31-69.4-69.3 0-38.4 31-69.4 69.4-69.4 38.3 0 69.3 31 69.3 69.4 0 38.3-31 69.3-69.3 69.3z"/><path fill-rule="evenodd" class="b" d="m165.2 257.9c-65.4-0.2-118.2-53.5-118-119.2 0.1-37.5 17.4-70.9 44.4-92.6-7.9 13.3-12.5 28.8-12.5 45.5-0.1 48.8 38.5 88.3 86.4 88.5 48 0.1 86.8-39.2 87-88.1 0-16.5-4.4-32-12.1-45.2 26.7 21.8 43.7 55.2 43.6 92.5-0.2 65.8-53.3 118.8-118.8 118.6z"/><path fill-rule="evenodd" class="c" d="m165 230.9c1.1-0.1 2 0.8 2 1.9l0.4 101.3c0 1.1-0.8 2-2 2-1.1 0.1-2-0.8-2-1.9l-0.4-101.3c0-1.1 0.9-2 2-2z"/><path fill-rule="evenodd" class="c" d="m200.9 276.3c0 1.1-0.6 2-1.3 2l-69.8 0.4c-0.7 0-1.4-0.9-1.4-2 0-1.1 0.7-2 1.4-2l69.8-0.4c0.7 0 1.3 0.9 1.3 2z"/><path fill-rule="evenodd" class="d" d="m164.6 286.3c-0.2-5.1-4.3-9.2-9.4-9.3-0.3-0.1-0.3-0.4 0-0.4 5.1-0.2 9.2-4.3 9.4-9.4 0-0.3 0.3-0.3 0.4 0 0.1 5.1 4.2 9.2 9.3 9.4 0.3 0 0.3 0.3 0 0.4-5.1 0.1-9.2 4.2-9.3 9.3-0.1 0.3-0.4 0.3-0.4 0z"/><path fill-rule="evenodd" class="e" d="m164.9 54.3c-0.3-14.3-11.8-25.8-26.1-26.1-0.7 0-0.7-1.1 0-1.1 14.3-0.3 25.8-11.9 26.1-26.1 0-0.8 1.1-0.8 1.1 0 0.3 14.2 11.8 25.8 26.1 26.1 0.8 0 0.8 1.1 0 1.1-14.3 0.3-25.8 11.8-26.1 26.1 0 0.7-1.1 0.7-1.1 0z"/><path fill-rule="evenodd" class="c" d="m199 53.3c-0.1-4.4-3.6-7.9-8-8-0.2 0-0.2-0.3 0-0.3 4.4-0.1 7.9-3.6 8-7.9 0-0.3 0.3-0.3 0.3 0 0.1 4.3 3.6 7.8 7.9 7.9 0.3 0 0.3 0.3 0 0.3-4.3 0.1-7.8 3.6-7.9 8 0 0.2-0.3 0.2-0.3 0z"/><path fill-rule="evenodd" class="c" d="m216.1 67.8c-0.1-2.1-1.8-3.8-3.9-3.8-0.1 0-0.1-0.2 0-0.2 2.1 0 3.8-1.7 3.9-3.8 0-0.1 0.1-0.1 0.1 0 0.1 2.1 1.8 3.8 3.9 3.8 0.1 0 0.1 0.2 0 0.2-2.1 0-3.8 1.7-3.9 3.8 0 0.1-0.1 0.1-0.1 0z"/><path fill-rule="evenodd" class="c" d="m226.2 81.8c1.3 0 2.4 1 2.4 2.3 0 1.3-1.1 2.3-2.4 2.3-1.2 0-2.3-1-2.3-2.3 0-1.3 1.1-2.3 2.3-2.3z"/><path fill-rule="evenodd" class="c" d="m232 101.4c0.6 0 1.2 0.5 1.2 1.1 0 0.6-0.6 1.2-1.2 1.2-0.6 0-1.1-0.6-1.1-1.2 0-0.6 0.5-1.1 1.1-1.1z"/><path fill-rule="evenodd" class="c" d="m132.2 53.3c0.1-4.4 3.6-7.9 7.9-8 0.3 0 0.3-0.3 0-0.3-4.3-0.1-7.8-3.6-7.9-7.9 0-0.3-0.3-0.3-0.3 0-0.1 4.3-3.6 7.8-8 7.9-0.2 0-0.2 0.3 0 0.3 4.4 0.1 7.9 3.6 8 8 0 0.2 0.3 0.2 0.3 0z"/><path fill-rule="evenodd" class="c" d="m115.1 67.8c0-2.1 1.7-3.8 3.8-3.8 0.1 0 0.1-0.2 0-0.2-2.1 0-3.8-1.7-3.8-3.8 0-0.1-0.2-0.1-0.2 0 0 2.1-1.7 3.8-3.8 3.8-0.1 0-0.1 0.2 0 0.2 2.1 0 3.8 1.7 3.8 3.8 0 0.1 0.2 0.1 0.2 0z"/><path fill-rule="evenodd" class="c" d="m104.9 86.4c-1.3 0-2.3-1-2.3-2.3 0-1.3 1-2.3 2.3-2.3 1.3 0 2.3 1 2.3 2.3 0 1.3-1 2.3-2.3 2.3z"/><path fill-rule="evenodd" class="c" d="m99.1 103.7c-0.6 0-1.1-0.6-1.1-1.2 0-0.6 0.5-1.1 1.1-1.1 0.7 0 1.2 0.5 1.2 1.1 0 0.6-0.5 1.2-1.2 1.2z"/><path fill-rule="evenodd" class="c" d="m282.3 166.3v-3.1l50.3 1.6z"/><path fill-rule="evenodd" class="c" d="m49.3 166.3v-3.1l-49.9 1.6z"/></svg>