<svg version="1.2" xmlns="http://www.w3.org/2000/svg" viewBox="0 0 714 301" width="714" height="200"><style>.a{fill:none;stroke:#fff;stroke-miterlimit:100;stroke-width:2}</style><path fill-rule="evenodd" class="a" d="m600.4 34.1v105.7h105.7v21.9h-105.7v105.8h-22v-105.8h-86.3c-5.6 74.4-67.5 132.8-143.3 132.8-79.5 0-143.8-64.2-143.8-143.7 0-79.5 64.3-143.8 143.8-143.8 75.8 0 137.7 58.4 143.3 132.8h86.3v-105.7zm-251.6-4.9c-67.2 0-121.6 54.3-121.6 121.6 0 67.2 54.4 121.6 121.6 121.6 67.3 0 121.6-54.4 121.6-121.6 0-67.3-54.3-121.6-121.6-121.6z"/><path fill-rule="evenodd" class="a" d="m151.3 295.5c-79.8 0-144.3-64.5-144.3-144.2 0-79.8 64.5-144.3 144.3-144.3 25.7 0 49.8 6.7 70.7 18.5-11.3-3.2-23.3-4.9-35.7-4.9-73.2 0-132.3 59.2-132.3 132.4 0 73.2 59.1 132.3 132.3 132.3 7.9 0 15.7-0.7 23.2-2-17.8 7.9-37.5 12.2-58.2 12.2z"/></svg>