<svg version="1.2" xmlns="http://www.w3.org/2000/svg" viewBox="0 0 240 418" width="240" height="418">
	<style>
		.s0 { fill: #fff } 
	</style>
	<path id="Shape 1" fill-rule="evenodd" class="s0" d="m217.3 329.85h-88.2v88.21h-18.31v-88.21h-88.2v-18.3h88.2v-72c-62.04-4.66-110.79-56.35-110.79-119.6 0-66.33 53.62-119.95 119.95-119.95 66.33 0 119.94 53.62 119.94 119.95 0 63.25-48.75 114.94-110.79 119.6v72h88.2zm4.09-209.91c0-56.09-45.35-101.44-101.44-101.44-56.1 0-101.44 45.35-101.44 101.44 0 56.1 45.34 101.44 101.44 101.44 56.09 0 101.44-45.34 101.44-101.44z"/>
</svg>