<svg version="1.2" xmlns="http://www.w3.org/2000/svg" viewBox="0 0 335 632" width="335" height="632"><style>.a{fill:none;stroke:#fff;stroke-miterlimit:100;stroke-width:2}</style><path fill-rule="evenodd" class="a" d="m268.3 342.9h-88.2v88.2h-18.3v-88.2h-88.2v-18.4h88.2v-72c-62-4.6-110.8-56.3-110.8-119.6 0-66.3 53.6-119.9 119.9-119.9 66.4 0 120 53.6 120 119.9 0 63.3-48.8 115-110.8 119.6v72h88.2zm4.1-209.9c0-56.1-45.4-101.4-101.5-101.4-56.1 0-101.4 45.3-101.4 101.4 0 56.1 45.3 101.5 101.4 101.5 56.1 0 101.5-45.4 101.5-101.5z"/><path fill-rule="evenodd" class="a" d="m323.5 464.5c0 86.2-69.8 156-156 156-86.3 0-156-69.8-156-156 0-13.8 1.8-27.2 5.1-39.9q-0.3 4.7-0.3 9.5c0 83.9 67.9 151.8 151.8 151.8 83.9 0 151.7-67.9 151.7-151.8q0-1.7 0-3.4c2.4 10.9 3.7 22.2 3.7 33.8z"/></svg>